<?xml version="1.0" encoding="UTF-8" standalone="no"?>
<svg
   xmlns:dc="http://purl.org/dc/elements/1.1/"
   xmlns:cc="http://creativecommons.org/ns#"
   xmlns:rdf="http://www.w3.org/1999/02/22-rdf-syntax-ns#"
   xmlns:svg="http://www.w3.org/2000/svg"
   xmlns="http://www.w3.org/2000/svg"
   viewBox="0 0 218.66667 122.66667"
   height="122.66667"
   width="218.66667"
   xml:space="preserve"
   id="svg2"
   version="1.1"><metadata
     id="metadata8"><rdf:RDF><cc:Work
         rdf:about=""><dc:format>image/svg+xml</dc:format><dc:type
           rdf:resource="http://purl.org/dc/dcmitype/StillImage" /></cc:Work></rdf:RDF></metadata><defs
     id="defs6" /><g
     transform="matrix(1.3333333,0,0,-1.3333333,0,122.66667)"
     id="g10"><g
       transform="translate(135)"
       id="g12"><path
         id="path14"
         style="fill:#ff6482;fill-opacity:1;fill-rule:nonzero;stroke:none"
         d="M 7.129083,0 C 6.250954,0 5.4066,0.043861 4.596019,0.13158 4.173187,0.17831 3.788697,0.22504 3.442549,0.27177 2.967703,0.335876 2.620228,0.760433 2.620228,1.257896 v 0 5.389473 0 c 0,0.267247 0.23101,0.470946 0.485515,0.432063 C 3.319807,7.046726 3.563259,7.011478 3.836099,6.973686 4.359599,6.903511 4.967535,6.86842 5.659906,6.86842 c 0.945678,0 1.68871,0.157898 2.229097,0.473686 0.557275,0.31579 0.937235,0.789474 1.13988,1.421053 v 0 C 9.160004,9.137766 9.163547,9.547749 9.038921,9.92474 L 0.03331,37.166775 C -0.101659,37.575054 0.190351,38 0.605878,38 v 0 h 8.35799 v 0 c 0.424109,0 0.792628,-0.302776 0.89036,-0.731522 L 14.666334,16.15789 c 0.06126,-0.268762 -0.29182,-0.413839 -0.424086,-0.174251 v 0 c -0.0881,0.159582 0.02279,0.358465 0.199873,0.358465 h 0.602765 c 0.184896,0 0.299802,-0.208719 0.206057,-0.374285 v 0 c -0.139005,-0.2455 -0.501639,-0.09433 -0.438745,0.182898 L 19.537104,36.97744 C 19.673038,37.576622 20.187784,38 20.780336,38 v 0 h 7.493367 v 0 c 0.491739,0 0.841138,-0.497326 0.691221,-0.983871 L 20.478348,9.473686 C 19.718428,7.000002 18.722088,5.078945 17.48933,3.710526 16.273458,2.342102 14.804273,1.385963 13.081789,0.842106 11.359304,0.280701 9.375068,0 7.129083,0 Z" /></g><g
       transform="translate(123,10)"
       id="g16"><path
         id="path18"
         style="fill:#ff6482;fill-opacity:1;fill-rule:nonzero;stroke:none"
         d="M 1.606886,0 C 0.719427,0 0,0.654865 0,1.462681 V 35.537323 C 0,36.345139 0.719427,37 1.606886,37 v 0 h 6.730516 v 0 C 9.25563,37 10,36.322433 10,35.48661 V 1.51339 C 10,0.677567 9.25563,0 8.337402,0 V 0 H 1.606886 Z" /></g><g
       transform="translate(91,1)"
       id="g20"><path
         id="path22"
         style="fill:#ff6482;fill-opacity:1;fill-rule:nonzero;stroke:none"
         d="M 1.395314,0 C 0.624703,0 0,0.592342 0,1.323032 v 34.0598 c 0,0.571662 0.488743,1.035087 1.091637,1.035087 v 0 h 7.288256 v 0 c 0.604861,0 1.095196,-0.464935 1.095196,-1.03846 v -3.749994 c 0,-0.06697 0.057256,-0.121258 0.127883,-0.121258 v 0 c 0.051821,0 0.098478,0.02973 0.118568,0.07503 0.494558,1.114979 1.150841,2.068539 1.968852,2.86068 0.836299,0.826721 1.814948,1.459415 2.935943,1.898086 C 15.765125,36.780666 17.019573,37 18.389679,37 c 2.455517,0 4.546267,-0.565208 6.272245,-1.695621 1.725979,-1.113545 3.042704,-2.741681 3.950177,-4.884408 0.925268,-2.142726 1.387901,-4.732557 1.387901,-7.769493 v -0.02531 c 0,-3.020066 -0.453739,-5.601462 -1.361212,-7.744189 -0.889681,-2.142727 -2.197508,-3.779297 -3.923487,-4.909711 -1.708185,-1.130417 -3.772241,-1.695626 -6.192171,-1.695626 -1.405695,0 -2.686833,0.2109 -3.843417,0.632696 -1.156584,0.43867 -2.161921,1.054491 -3.016013,1.84747 -0.819853,0.777382 -1.477249,1.700699 -1.97219,2.769947 -0.018085,0.03907 -0.058741,0.06452 -0.103742,0.06452 v 0 c -0.062232,0 -0.112681,-0.04783 -0.112681,-0.106844 V 1.326403 C 9.475089,0.593857 8.848793,0 8.076217,0 V 0 H 1.395314 Z m 13.524615,15.589602 c 1.120997,0 2.090748,0.286823 2.909253,0.860466 0.818506,0.573642 1.450178,1.383493 1.895019,2.429548 0.44484,1.046057 0.667259,2.294575 0.667259,3.745556 v 0.02531 c 0,1.467854 -0.231317,2.724806 -0.69395,3.770863 -0.44484,1.062927 -1.076512,1.872776 -1.895018,2.429548 -0.800711,0.556772 -1.761566,0.835158 -2.882563,0.835158 -1.08541,0 -2.046263,-0.286822 -2.882562,-0.860466 C 11.218862,28.26881 10.578292,27.467396 10.115659,26.421341 9.670819,25.375284 9.4484,24.118332 9.4484,22.650478 v -0.02531 c 0,-1.467854 0.222419,-2.724808 0.667259,-3.770863 0.462633,-1.046057 1.103203,-1.855905 1.921708,-2.42955 0.836299,-0.55677 1.797152,-0.835157 2.882562,-0.835157 z" /></g><g
       transform="translate(78,9)"
       id="g24"><path
         id="path26"
         style="fill:#ff6482;fill-opacity:1;fill-rule:nonzero;stroke:none"
         d="M 1.167887,-2e-6 C 0.522881,-2e-6 0,0.549231 0,1.226748 V 27.601377 C 0,28.373816 0.596137,29 1.33151,29 H 7.927392 C 8.519776,29 9,28.495571 9,27.873329 V 1.258116 C 9,0.563276 8.46375,-2e-6 7.802253,-2e-6 Z" /></g><g
       transform="translate(33,9)"
       id="g28"><path
         id="path30"
         style="fill:#ff6482;fill-opacity:1;fill-rule:nonzero;stroke:none"
         d="M 8.914113,0 C 7.843242,0 6.907628,0.740416 6.638285,1.801022 L 0.030034,27.822706 C -0.121271,28.418507 0.318178,29 0.919746,29 v 0 H 8.02585 v 0 c 0.606305,0 1.125525,-0.444464 1.232619,-1.055145 L 12.648276,8.614958 c 0.0095,-0.054045 0.05543,-0.093378 0.109084,-0.093378 v 0 c 0.05219,0 0.09732,0.037269 0.108329,0.089479 l 4.043102,19.16638 C 17.059269,28.490786 17.675762,29 18.388918,29 v 0 h 6.513929 v 0 c 0.633877,0 1.182194,-0.451752 1.317484,-1.085457 L 30.341446,8.610895 c 0.01113,-0.052143 0.05625,-0.089315 0.10841,-0.089315 v 0 c 0.05372,0 0.09973,0.039383 0.10922,0.093494 l 3.374873,19.244738 C 34.049675,28.519714 34.610744,29 35.265919,29 v 0 h 6.810016 v 0 c 0.603737,0 1.04514,-0.583036 0.894295,-1.181255 L 36.275791,1.270073 C 36.087265,0.522419 35.428295,0 34.67374,0 v 0 h -7.106105 v 0 c -0.910071,0 -1.700701,0.640343 -1.90975,1.546724 L 21.533478,19.42915 c -0.01225,0.05309 -0.05855,0.0906 -0.111855,0.0906 v 0 c -0.05342,0 -0.09979,-0.03766 -0.111923,-0.09089 L 17.210396,1.447384 C 17.017147,0.599703 16.278656,0 15.428042,0 V 0 H 8.914113 Z" /></g><g
       transform="translate(0,9)"
       id="g32"><path
         id="path34"
         style="fill:#ff6482;fill-opacity:1;fill-rule:nonzero;stroke:none"
         d="M 15.973304,0 C 12.804929,0 10.050202,0.443478 7.709125,1.330433 5.38565,2.234779 3.563835,3.530434 2.243679,5.217392 0.941125,6.904346 0.158419,8.073042 0,10.473042 v 0 c 0.014337,0.746553 0.630966,1.344348 1.386702,1.344348 h 6.829293 c 0.479653,0 0.899441,-0.318458 1.023301,-0.776294 v 0 c 0.048069,-0.177687 0.148123,-0.336907 0.246628,-0.49297 0.178644,-0.283027 0.318709,-0.65813 0.810708,-1.130735 0.651277,-0.591303 1.478575,-1.060871 2.481893,-1.408697 1.003319,-0.330435 2.121051,-0.49565 3.353196,-0.49565 1.284953,0 2.385083,0.165215 3.300393,0.49565 0.932909,0.347826 1.654596,0.817394 2.165056,1.408697 0.51046,0.591305 0.76569,1.278259 0.76569,2.060869 v 0.02609 c 0,1.060869 -0.466456,1.87826 -1.399367,2.452173 -0.932909,0.591305 -2.517097,1.095654 -4.752561,1.513046 l -3.907664,0.75652 C 8.536423,16.921741 5.667284,18.173917 3.695851,19.982612 1.742019,21.8087 0.765104,24.165221 0.765104,27.052177 v 0.02609 c 0,2.417391 0.651277,4.513045 1.953831,6.286955 1.302554,1.791306 3.089165,3.173916 5.359834,4.147827 C 10.36704,38.504349 12.963346,39 15.86769,39 c 3.185977,0 5.896699,-0.469566 8.132163,-1.408695 2.235464,-0.921742 3.960467,-2.226086 5.175011,-3.913044 1.232145,-1.686957 1.927427,-2.821449 2.033041,-5.099709 v 0 c 0,-0.770958 -0.632557,-1.395942 -1.412859,-1.395942 h -6.347983 c -0.173538,0 -0.345365,0.03387 -0.505615,0.09967 v 0 c -0.294075,0.12075 -0.533932,0.342655 -0.675188,0.624656 l -0.336412,0.671612 c -0.300408,0.593622 -0.18306,0.438839 -0.728726,1.030144 -0.545664,0.591305 -1.267349,1.052174 -2.165056,1.382608 -0.897705,0.330435 -1.927429,0.495652 -3.089167,0.495652 -1.179339,0 -2.182657,-0.165217 -3.009955,-0.495652 -0.827298,-0.330434 -1.460973,-0.78261 -1.901025,-1.356523 -0.42245,-0.556521 -0.633675,-1.191303 -0.633675,-1.904347 v -0.02609 c 0,-1.008696 0.466456,-1.808695 1.399366,-2.4 0.932911,-0.591305 2.420286,-1.07826 4.462127,-1.460869 L 20.1714,23.113043 c 2.71072,-0.504347 4.937384,-1.21739 6.679989,-2.13913 1.742607,-0.921739 3.036362,-2.095651 3.881262,-3.52174 C 31.577551,16.043478 32,14.330433 32,12.313042 v -0.02609 C 32,9.782608 31.366325,7.608696 30.098974,5.765217 28.831625,3.921738 27.001009,2.495651 24.607126,1.486954 22.213242,0.495651 19.335302,0 15.973304,0 Z" /></g><g
       transform="translate(52,58.945099)"
       id="g36"><path
         id="path38"
         style="fill:#ff6482;fill-opacity:1;fill-rule:nonzero;stroke:none"
         d="m 13.238869,8.591833 11.706199,11.898481 c 0.22177,0.225411 0.554421,0.547425 0.950436,0.966046 1.251408,1.336365 1.885036,2.012594 2.043442,2.833732 0.03168,0.144909 0.221765,1.207562 -0.285134,2.125306 -0.237609,0.418621 -0.665306,0.917743 -1.04548,1.336362 -0.205929,0.241513 -0.380173,0.418622 -0.443535,0.483025 -0.902914,0.949946 -3.009716,3.059147 -3.35821,3.381163 -0.364332,0.305916 -0.918751,0.708439 -1.679098,1.014351 -1.124683,0.450824 -2.090961,0.434723 -2.740427,0.418621 -1.441494,-0.0322 -2.518656,-0.450821 -3.025555,-0.676232 C 13.951694,31.744757 13.064621,30.875315 12.747808,30.537199 9.262877,26.995028 5.777946,23.452858 2.308856,19.926786 1.960363,19.556469 -0.273161,17.093046 0.027811,13.438169 0.297101,10.266315 2.277176,8.366423 2.736554,7.947803 l 7.746051,-7.873279 c 0.04752,-0.048306 0.110886,-4e-6 0.09505,0.0644 -0.158406,0.56353 -0.269293,1.207559 -0.285134,1.932094 -0.06336,3.445566 2.265206,5.860684 2.946353,6.520815 z" /></g><g
       transform="translate(64,39.391541)"
       id="g40"><path
         id="path42"
         style="fill:#ff6482;fill-opacity:1;fill-rule:nonzero;stroke:none"
         d="M 13.023613,4.021126 2.365357,14.892548 c -3.153809,3.216884 -3.153809,8.446382 0,11.663267 l 23.176454,23.639982 c 3.15381,3.216885 8.280771,3.216885 11.434584,0 L 47.634644,39.324371 c 3.153808,-3.216884 3.153808,-8.44638 0,-11.663265 L 24.458193,4.021126 c -3.153809,-3.216889 -8.280771,-3.216889 -11.43458,0 z" /></g><g
       transform="translate(77,44)"
       id="g44"><path
         id="path46"
         style="fill:#ffffff;fill-opacity:1;fill-rule:nonzero;stroke:none"
         d="M 5.5,0 C 5.444613,0 5.378147,0.014706 5.300604,0.044118 5.226754,0.070262 5.160289,0.099673 5.101209,0.132354 4.05992,0.720589 3.1571,1.336602 2.392749,1.980392 1.628399,2.627451 1.037597,3.29085 0.620342,3.970589 0.206781,4.653595 0,5.343138 0,6.039216 0,6.473856 0.077543,6.870915 0.232628,7.230392 0.391407,7.593137 0.611111,7.906863 0.891742,8.171569 1.172373,8.436275 1.499161,8.640523 1.872105,8.784314 2.245049,8.928104 2.649379,9 3.085096,9 3.627895,9 4.10423,8.877451 4.514099,8.632353 4.835301,8.440277 5.106613,8.200033 5.328035,7.911622 5.412902,7.801081 5.587483,7.800838 5.672527,7.911242 5.896513,8.202023 6.169484,8.442393 6.49144,8.632353 6.901309,8.877451 7.375798,9 7.914905,9 8.350621,9 8.754951,8.928104 9.127895,8.784314 9.504532,8.640523 9.831319,8.436275 10.108258,8.171569 10.388889,7.906863 10.606748,7.593137 10.761833,7.230392 10.92061,6.870915 11,6.473856 11,6.039216 11,5.343138 10.791373,4.653595 10.374119,3.970589 9.960558,3.29085 9.371602,2.627451 8.607251,1.980392 7.846593,1.336602 6.94562,0.720589 5.904331,0.132354 5.84525,0.099673 5.776938,0.070262 5.699396,0.044118 5.625546,0.014706 5.55908,0 5.5,0 Z" /></g></g></svg>